<?xml version="1.0" encoding="utf-8"?><svg xmlns="http://www.w3.org/2000/svg" xmlns:xlink="http://www.w3.org/1999/xlink"><symbol viewBox="0 0 24 24" id="arrow-left" xmlns="http://www.w3.org/2000/svg"><path d="m15.065 21.645-8.507-8.878c-.186-.232-.325-.511-.325-.79 0-.28.14-.558.325-.744l8.507-8.878a1.11 1.11 0 0 1 1.58-.047c.465.419.465 1.116.047 1.58l-7.81 8.135 7.81 8.088a1.11 1.11 0 0 1-.047 1.58 1.11 1.11 0 0 1-1.58-.046Z"/></symbol><symbol viewBox="0 0 24 24" id="arrow-right" xmlns="http://www.w3.org/2000/svg"><path d="m8.935 2.355 8.507 8.878c.186.232.325.511.325.79 0 .28-.14.558-.325.744l-8.507 8.878a1.11 1.11 0 0 1-1.58.047c-.465-.419-.465-1.116-.047-1.58l7.81-8.135-7.81-8.088a1.11 1.11 0 0 1 .047-1.58 1.11 1.11 0 0 1 1.58.046Z"/></symbol><symbol viewBox="0 0 18 18" id="catalog-icon" xmlns="http://www.w3.org/2000/svg"><path d="M1 2a1 1 0 0 1 1-1h4a1 1 0 0 1 1 1v4a1 1 0 0 1-1 1H2a1 1 0 0 1-1-1V2Zm10 0a1 1 0 0 1 1-1h4a1 1 0 0 1 1 1v4a1 1 0 0 1-1 1h-4a1 1 0 0 1-1-1V2ZM1 12a1 1 0 0 1 1-1h4a1 1 0 0 1 1 1v4a1 1 0 0 1-1 1H2a1 1 0 0 1-1-1v-4Zm10 0a1 1 0 0 1 1-1h4a1 1 0 0 1 1 1v4a1 1 0 0 1-1 1h-4a1 1 0 0 1-1-1v-4Z"/></symbol><symbol viewBox="0 0 24 24" id="icon-close" xmlns="http://www.w3.org/2000/svg"><path d="M17.658 7.414 16.244 6l-4.242 4.243L7.759 6 6.345 7.414l4.242 4.243-4.242 4.242 1.414 1.415 4.243-4.243 4.242 4.243 1.415-1.415-4.243-4.242 4.242-4.243Z"/></symbol><symbol viewBox="0 0 18 18" id="icon-eye" xmlns="http://www.w3.org/2000/svg"><path d="M8.636 6.527c.082 0 .164-.027.246-.027a2.626 2.626 0 0 1 0 5.25 2.608 2.608 0 0 1-2.625-2.625v-.219a1.8 1.8 0 0 0 .875.219c.957 0 1.75-.766 1.75-1.75 0-.3-.11-.602-.246-.848Zm5.496-1.312c1.285 1.176 2.133 2.598 2.543 3.582a.98.98 0 0 1 0 .683c-.41.957-1.258 2.38-2.543 3.582-1.285 1.204-3.063 2.188-5.25 2.188-2.215 0-3.992-.984-5.278-2.188C2.32 11.86 1.472 10.438 1.062 9.48a.98.98 0 0 1 0-.683c.41-.985 1.257-2.406 2.542-3.582C4.89 4.012 6.667 3 8.882 3c2.187 0 3.965 1.012 5.25 2.215Zm-5.25-.027a3.938 3.938 0 0 0-3.938 3.937 3.921 3.921 0 0 0 3.938 3.938c2.16 0 3.937-1.75 3.937-3.938 0-2.16-1.777-3.938-3.937-3.938Z"/></symbol><symbol viewBox="0 0 24 24" id="insta-icon" xmlns="http://www.w3.org/2000/svg"><path d="M12.02 7.36a4.621 4.621 0 0 0-4.62 4.62 4.595 4.595 0 0 0 4.62 4.62 4.62 4.62 0 0 0 4.62-4.62c0-2.531-2.089-4.62-4.62-4.62Zm0 7.633a3.01 3.01 0 0 1-3.013-3.013c0-1.647 1.326-2.973 3.013-2.973a2.967 2.967 0 0 1 2.973 2.973c0 1.687-1.326 3.013-2.973 3.013ZM17.886 7.2a1.08 1.08 0 0 0-1.085-1.085A1.08 1.08 0 0 0 15.717 7.2 1.08 1.08 0 0 0 16.8 8.283 1.08 1.08 0 0 0 17.886 7.2Zm3.054 1.084c-.08-1.446-.402-2.732-1.447-3.776-1.044-1.045-2.33-1.366-3.776-1.447-1.487-.08-5.947-.08-7.434 0-1.446.08-2.691.402-3.776 1.447C3.462 5.55 3.14 6.837 3.06 8.283c-.08 1.487-.08 5.947 0 7.434.08 1.446.402 2.691 1.447 3.776 1.085 1.045 2.33 1.366 3.776 1.447 1.487.08 5.947.08 7.434 0 1.446-.08 2.732-.402 3.776-1.447 1.045-1.084 1.366-2.33 1.447-3.776.08-1.487.08-5.947 0-7.434Zm-1.929 9c-.281.804-.924 1.407-1.687 1.728-1.206.482-4.018.362-5.304.362-1.326 0-4.138.12-5.303-.362a3.046 3.046 0 0 1-1.728-1.727c-.482-1.166-.362-3.978-.362-5.304 0-1.286-.12-4.098.362-5.304A3.1 3.1 0 0 1 6.717 4.99c1.165-.482 3.977-.362 5.303-.362 1.286 0 4.098-.12 5.304.362.763.281 1.366.924 1.687 1.687.482 1.206.362 4.018.362 5.304 0 1.326.12 4.138-.362 5.303Z"/></symbol><symbol viewBox="0 0 137 124" id="logo" xmlns="http://www.w3.org/2000/svg"><path d="M29.37 56.756c1.94 22.183 30.917 61.397 50.346 59.131 19.428-2.266 21.916-45.17 20.013-67.354-1.94-22.184-19.245-38.337-38.673-36.07-19.429 2.302-33.625 22.11-31.686 44.293Z"/><path d="M17.223 99.258c6.44 13.851 32.344 17.14 53.346 11.987 21.001-5.152 53.564-25.253 47.125-58.034-2.488-12.755-15.477-35.194-58.431-17.652-23.856 9.721-50.93 44.55-42.04 63.7Z" opacity=".8"/><path d="M6.283 50.543c0 23.974 37.174 50.177 57.663 50.177 20.49 0 42.552-26.203 42.552-50.177s-8.635-40.237-38.93-22.037C49.311 39.469 6.283 26.569 6.283 50.543Z"/><path d="M69.215 19.662c2.414 2.668 12 1.535 15.842-3.18 3.805-4.714.44-11.256-2.012-13.887-2.415-2.668-7.5-.987-11.306 3.727-3.842 4.715-4.976 10.672-2.524 13.34ZM14.003 83.544c1.171-2.558-.841-10.05-4.097-12.097-3.257-2.01-6.513 2.156-7.72 4.715-1.171 2.558.512 6.249 3.768 8.295 3.293 2.047 6.879 1.645 8.05-.913Zm83.165-65.966c-.732 1.572.841 6.433 3.147 7.858 2.268 1.425 4.39-1.133 5.122-2.704.732-1.572-.512-4.02-2.817-5.446-2.269-1.425-4.72-1.316-5.452.292ZM64.458 120.565l-.695 2.119h-.878l2.268-6.688h1.061l2.305 6.688h-.914l-.732-2.083-2.415-.036Zm2.195-.695-.658-1.937c-.146-.438-.256-.84-.366-1.206h-.037l-.329 1.206-.658 1.937h2.048Zm5.196-3.837a10.62 10.62 0 0 1 1.647-.146c.914 0 1.536.146 1.939.548.329.292.512.767.512 1.279 0 .877-.549 1.462-1.244 1.718v.036c.512.183.841.658.988 1.353.22.95.366 1.571.512 1.827h-.878c-.11-.183-.256-.768-.44-1.608-.219-.914-.548-1.279-1.353-1.279h-.805v2.887h-.878v-6.615Zm.842 3.033h.878c.914 0 1.5-.511 1.5-1.279 0-.877-.622-1.242-1.537-1.242-.402 0-.732.036-.841.073v2.448Zm8.232-2.412h-2.05v-.731h4.94v.731h-2.049v5.957h-.878l.037-5.957Zm7.537 2.924v.658h-2.451v-.658h2.451Zm3.33 1.937c.402.219.95.438 1.536.438.878 0 1.39-.475 1.39-1.132 0-.622-.365-.987-1.28-1.316-1.098-.366-1.756-.95-1.756-1.901 0-1.059.841-1.827 2.158-1.827.696 0 1.171.146 1.464.329l-.22.694c-.22-.109-.658-.328-1.28-.328-.915 0-1.244.548-1.244 1.023 0 .621.402.913 1.317 1.279 1.134.439 1.72.987 1.72 1.973 0 1.024-.769 1.937-2.342 1.937-.659 0-1.354-.182-1.72-.438l.257-.731Zm8.671-4.934h-2.05v-.731h4.94v.731h-2.049v5.957h-.878l.037-5.957Zm6.878-.731v3.947c0 1.499.659 2.12 1.574 2.12.988 0 1.61-.658 1.61-2.12v-3.947h.878v3.911c0 2.046-1.061 2.887-2.525 2.887-1.354 0-2.415-.768-2.415-2.851v-3.947h.878Zm7.977.073a12.8 12.8 0 0 1 1.829-.146c1.244 0 2.122.293 2.707.841.586.548.952 1.315.952 2.412 0 1.096-.33 1.973-.952 2.595-.622.621-1.646.95-2.963.986-.622 0-1.134-.036-1.573-.073v-6.615Zm.878 5.884c.219.037.548.037.878.037 1.829 0 2.854-1.023 2.854-2.851 0-1.571-.878-2.595-2.708-2.558-.439 0-.768.037-1.024.11v5.262Zm8.964-6.03.036 6.688h-.878l-.036-6.688h.878Zm9.622 3.253c0 2.302-1.39 3.508-3.11 3.545-1.756 0-3-1.352-3.036-3.399 0-2.12 1.317-3.508 3.11-3.508 1.866 0 3.036 1.388 3.036 3.362Zm-5.195.146c0 1.425.768 2.704 2.159 2.704 1.353 0 2.158-1.279 2.122-2.777 0-1.316-.695-2.705-2.159-2.705-1.39-.036-2.122 1.28-2.122 2.778ZM24.76 65.819c.476 3.581 3.147 5.591 7.903 5.591 4.574 0 6.952-1.9 6.952-4.897-.037-7.601-16.391-1.754-16.428-11.512 0-4.13 3.366-6.87 8.708-6.87 5.561 0 9 2.814 9.366 7.309h-2.45c-.257-2.595-2.343-5.043-6.953-5.043-3.988 0-6.22 1.754-6.183 4.495.037 7.309 16.355 1.571 16.391 11.512 0 4.203-3.402 7.309-9.403 7.309-6 0-9.732-2.704-10.354-7.894h2.451ZM56.263 48.46v2.193l-6.916.036.037 15.093c0 4.167 2.78 5.19 4.976 5.19h1.903v2.339h-1.94c-3.366 0-7.317-1.827-7.317-7.529l-.037-15.093h-3.732v-2.193h3.732l-.036-7.2h2.378l.036 7.2 6.916-.036Zm24.916 18.894c-2.342 3.764-5.854 6.213-11.452 6.25-7.5.036-12.916-5.52-12.952-12.755-.037-7.127 5.415-12.755 12.66-12.791 7.39-.037 12.585 5.628 12.585 11.95 0 .402-.036.804-.036 1.133-.037.146-.037.329-.037.512l-22.611.073c.402 6.067 5.013 9.502 10.354 9.502 4.903 0 7.647-1.974 9.586-5.153l1.903 1.279ZM59.373 59.46l20.16-.073c-.55-5.592-4.903-9.063-10.062-9.063-4.976.036-9.586 3.581-10.099 9.136Zm46.247-1.498.036 15.166h-2.414l-.037-14.874c0-5.007-2.744-7.967-7.464-7.967-4.903 0-8.05 3.29-8.013 8.698l.037 14.18h-2.452L85.24 48.35h2.452v3.764c1.427-2.229 3.951-4.166 8.269-4.202 5.78.036 9.659 3.947 9.659 10.05Zm28.831 2.631c.037 7.236-5.561 12.828-12.733 12.828-7.244.036-12.842-5.519-12.842-12.755-.037-7.126 5.525-12.755 12.769-12.791 7.135-.036 12.769 5.555 12.806 12.718Zm-23.16.11c0 5.847 4.464 10.415 10.427 10.379 5.928 0 10.318-4.605 10.282-10.452 0-5.958-4.464-10.453-10.355-10.453-5.964.037-10.354 4.569-10.354 10.526Zm-59.126 42.795.036 13.558h-2.415l-.11-33.44h2.416v4.861c2.012-3.142 5.598-5.262 10.354-5.299 7.135-.036 12.696 5.555 12.696 12.718.037 7.236-5.488 12.828-12.623 12.828-4.72.036-8.305-2.083-10.354-5.226Zm-.183-7.492c0 5.92 4.537 10.415 10.427 10.379 5.964 0 10.355-4.605 10.355-10.452 0-5.957-4.464-10.452-10.428-10.452-5.854.073-10.354 4.604-10.354 10.525ZM89.119 85.81c-4.757 0-8.27 3.654-8.27 9.063l.037 13.485h-2.414l-.074-24.814h2.415v4.605c.951-1.828 3.659-5.007 8.269-5.044l.037 2.705Zm3.183-8.844v-2.632h2.451v2.632h-2.451Zm.11 31.356-.074-24.815h2.452l.073 24.815h-2.451Zm26.709-15.276.036 15.166h-2.415l-.036-14.874c0-5.007-2.744-7.967-7.464-7.967-4.903 0-8.049 3.29-8.013 8.698l.037 14.18h-2.415l-.073-24.815h2.415v3.764c1.427-2.229 3.951-4.166 8.268-4.202 5.745.036 9.623 3.947 9.66 10.05Zm14.964-9.685v2.193l-6.915.036.037 15.094c0 4.166 2.78 5.189 4.976 5.189h1.902v2.339h-1.939c-3.366 0-7.318-1.827-7.318-7.528l-.036-15.094h-3.732v-2.192h3.732l-.037-7.2h2.378l.037 7.2 6.915-.037Z"/></symbol><symbol viewBox="0 0 18 18" id="min-arrow" xmlns="http://www.w3.org/2000/svg"><path d="M3.527 10.205 8.564 5.38c.131-.106.29-.185.448-.185.158 0 .316.08.422.185l5.036 4.825a.63.63 0 0 1 .026.896c-.237.264-.633.264-.896.027l-4.615-4.43-4.587 4.43A.63.63 0 0 1 3.5 11.1a.63.63 0 0 1 .026-.896Z"/></symbol><symbol viewBox="0 0 52 11" id="ruso-logo" xmlns="http://www.w3.org/2000/svg"><g clip-path="url(#ia)"><path d="M13.424 6.353V.252h2.191v6.025c0 1.415.823 2.388 2.39 2.388 1.567 0 2.373-.974 2.373-2.388V.252h2.207v6.086c0 2.526-1.492 4.245-4.58 4.245-3.09 0-4.58-1.735-4.58-4.23ZM27.791 8.97l1.17-1.644a4.448 4.448 0 0 0 3.227 1.37c1.187 0 1.765-.548 1.765-1.127 0-1.795-5.843-.563-5.843-4.382C28.11 1.5 29.57.1 31.96.1c1.613 0 2.951.486 3.956 1.415l-1.203 1.582c-.82-.76-1.916-1.11-2.951-1.11-.928 0-1.445.41-1.445 1.02 0 1.612 5.827.532 5.827 4.32 0 1.857-1.324 3.257-4.062 3.257-1.947 0-3.347-.655-4.291-1.614Zm13.421-3.678C41.212 2.21 43.467 0 46.551 0c3.098 0 5.353 2.209 5.353 5.292 0 3.083-2.255 5.292-5.353 5.292-3.084 0-5.339-2.209-5.339-5.292Zm8.452 0c0-1.916-1.227-3.358-3.113-3.358-1.887 0-3.099 1.442-3.099 3.358 0 1.903 1.212 3.36 3.099 3.36 1.886 0 3.113-1.457 3.113-3.36ZM5.935 6.535c1.095-.258 2.222-1.217 2.222-3.012 0-1.887-1.293-3.271-3.409-3.271H0v1.901h4.429c.867 0 1.521.517 1.521 1.37 0 .851-.655 1.37-1.521 1.37H0V10.4h2.16V6.795h1.584L5.737 10.4h2.48L5.936 6.535Z"/></g><defs><clipPath id="ia"><path d="M0 0h52v11H0z"/></clipPath></defs></symbol><symbol viewBox="0 0 16 16" id="search-icon" xmlns="http://www.w3.org/2000/svg"><path d="m15.646 13.866-3.75-3.75a6.488 6.488 0 0 0 1.063-4.5C12.552 2.741 10.209.429 7.365.054 3.115-.478-.48 3.116.052 7.366c.375 2.844 2.688 5.188 5.563 5.594 1.687.218 3.25-.219 4.531-1.063l3.719 3.75c.5.469 1.281.469 1.781 0 .469-.5.469-1.281 0-1.781ZM2.49 6.491c0-2.188 1.781-4 4-4 2.187 0 4 1.812 4 4 0 2.219-1.813 4-4 4-2.219 0-4-1.781-4-4Z"/></symbol><symbol viewBox="0 0 24 24" id="vk-icon" xmlns="http://www.w3.org/2000/svg"><path d="M12.871 17.245c.457 0 .644-.304.638-.686-.023-1.438.536-2.212 1.544-1.203 1.116 1.116 1.347 1.89 2.703 1.89h2.4c.606 0 .844-.196.844-.502 0-.647-1.066-1.79-1.969-2.628-1.264-1.173-1.323-1.201-.234-2.614C20.147 9.748 21.914 7.5 20.35 7.5h-2.985c-.58 0-.621.326-.828.812-.746 1.76-2.164 4.04-2.703 3.692-.563-.364-.305-1.805-.262-3.946.011-.566.008-.953-.856-1.154a6.052 6.052 0 0 0-1.356-.154c-1.705 0-2.881.715-2.213.84 1.178.219 1.065 2.768.79 3.87-.478 1.916-2.276-1.519-3.025-3.23-.181-.41-.237-.73-.882-.73H3.59c-.37 0-.591.12-.591.387 0 .451 2.22 5.04 4.34 7.327 2.066 2.231 4.11 2.031 5.531 2.031Z"/></symbol></svg>