<svg width="18" height="18" fill="none" xmlns="http://www.w3.org/2000/svg"><path d="M8.636 6.527c.082 0 .164-.027.246-.027a2.626 2.626 0 010 5.25 2.608 2.608 0 01-2.625-2.625v-.219a1.8 1.8 0 00.875.219c.957 0 1.75-.766 1.75-1.75 0-.3-.11-.602-.246-.848zm5.496-1.312c1.285 1.176 2.133 2.598 2.543 3.582a.98.98 0 010 .683c-.41.957-1.258 2.38-2.543 3.582-1.285 1.204-3.063 2.188-5.25 2.188-2.215 0-3.992-.984-5.278-2.188C2.32 11.86 1.472 10.438 1.062 9.48a.98.98 0 010-.683c.41-.985 1.257-2.406 2.542-3.582C4.89 4.012 6.667 3 8.882 3c2.187 0 3.965 1.012 5.25 2.215zm-5.25-.027a3.938 3.938 0 00-3.938 3.937 3.921 3.921 0 003.938 3.938c2.16 0 3.937-1.75 3.937-3.938 0-2.16-1.777-3.938-3.937-3.938z" fill="#828299"/></svg>