<svg width="137" height="124" fill="none" xmlns="http://www.w3.org/2000/svg"><path d="M29.37 56.756c1.94 22.183 30.917 61.397 50.346 59.131 19.428-2.266 21.916-45.17 20.013-67.354-1.94-22.184-19.245-38.337-38.673-36.07-19.429 2.302-33.625 22.11-31.686 44.293z" fill="#D3E5CF"/><path d="M17.223 99.258c6.44 13.851 32.344 17.14 53.346 11.987 21.001-5.152 53.564-25.253 47.125-58.034-2.488-12.755-15.477-35.194-58.431-17.652-23.856 9.721-50.93 44.55-42.04 63.7z" fill="#FFDC8D" opacity=".8"/><path d="M6.283 50.543c0 23.974 37.174 50.177 57.663 50.177 20.49 0 42.552-26.203 42.552-50.177s-8.635-40.237-38.93-22.037C49.311 39.469 6.283 26.569 6.283 50.543z" fill="url(#paint0_linear_4893_351)"/><path d="M69.215 19.662c2.414 2.668 12 1.535 15.842-3.18 3.805-4.714.44-11.256-2.012-13.887-2.415-2.668-7.5-.987-11.306 3.727-3.842 4.715-4.976 10.672-2.524 13.34z" fill="#FFDC8D"/><path d="M14.003 83.544c1.171-2.558-.841-10.05-4.097-12.097-3.257-2.01-6.513 2.156-7.72 4.715-1.171 2.558.512 6.249 3.768 8.295 3.293 2.047 6.879 1.645 8.05-.913zm83.165-65.966c-.732 1.572.841 6.433 3.147 7.858 2.268 1.425 4.39-1.133 5.122-2.704.732-1.572-.512-4.02-2.817-5.446-2.269-1.425-4.72-1.316-5.452.292z" fill="#D3E5CF"/><path d="M64.458 120.565l-.695 2.119h-.878l2.268-6.688h1.061l2.305 6.688h-.914l-.732-2.083-2.415-.036zm2.195-.695l-.658-1.937c-.146-.438-.256-.84-.366-1.206h-.037l-.329 1.206-.658 1.937h2.048zm5.196-3.837a10.62 10.62 0 011.647-.146c.914 0 1.536.146 1.939.548.329.292.512.767.512 1.279 0 .877-.549 1.462-1.244 1.718v.036c.512.183.841.658.988 1.353.22.95.366 1.571.512 1.827h-.878c-.11-.183-.256-.768-.44-1.608-.219-.914-.548-1.279-1.353-1.279h-.805v2.887h-.878v-6.615zm.842 3.033h.878c.914 0 1.5-.511 1.5-1.279 0-.877-.622-1.242-1.537-1.242-.402 0-.732.036-.841.073v2.448zm8.232-2.412h-2.05v-.731h4.94v.731h-2.049v5.957h-.878l.037-5.957zm7.537 2.924v.658h-2.451v-.658h2.451zm3.33 1.937c.402.219.95.438 1.536.438.878 0 1.39-.475 1.39-1.132 0-.622-.365-.987-1.28-1.316-1.098-.366-1.756-.95-1.756-1.901 0-1.059.841-1.827 2.158-1.827.696 0 1.171.146 1.464.329l-.22.694c-.22-.109-.658-.328-1.28-.328-.915 0-1.244.548-1.244 1.023 0 .621.402.913 1.317 1.279 1.134.439 1.72.987 1.72 1.973 0 1.024-.769 1.937-2.342 1.937-.659 0-1.354-.182-1.72-.438l.257-.731zm8.671-4.934h-2.05v-.731h4.94v.731h-2.049v5.957h-.878l.037-5.957zm6.878-.731v3.947c0 1.499.659 2.12 1.574 2.12.988 0 1.61-.658 1.61-2.12v-3.947h.878v3.911c0 2.046-1.061 2.887-2.525 2.887-1.354 0-2.415-.768-2.415-2.851v-3.947h.878zm7.977.073a12.8 12.8 0 011.829-.146c1.244 0 2.122.293 2.707.841.586.548.952 1.315.952 2.412 0 1.096-.33 1.973-.952 2.595-.622.621-1.646.95-2.963.986-.622 0-1.134-.036-1.573-.073v-6.615zm.878 5.884c.219.037.548.037.878.037 1.829 0 2.854-1.023 2.854-2.851 0-1.571-.878-2.595-2.708-2.558-.439 0-.768.037-1.024.11v5.262zm8.964-6.03l.036 6.688h-.878l-.036-6.688h.878zm9.622 3.253c0 2.302-1.39 3.508-3.11 3.545-1.756 0-3-1.352-3.036-3.399 0-2.12 1.317-3.508 3.11-3.508 1.866 0 3.036 1.388 3.036 3.362zm-5.195.146c0 1.425.768 2.704 2.159 2.704 1.353 0 2.158-1.279 2.122-2.777 0-1.316-.695-2.705-2.159-2.705-1.39-.036-2.122 1.28-2.122 2.778zM24.76 65.819c.476 3.581 3.147 5.591 7.903 5.591 4.574 0 6.952-1.9 6.952-4.897-.037-7.601-16.391-1.754-16.428-11.512 0-4.13 3.366-6.87 8.708-6.87 5.561 0 9 2.814 9.366 7.309h-2.45c-.257-2.595-2.343-5.043-6.953-5.043-3.988 0-6.22 1.754-6.183 4.495.037 7.309 16.355 1.571 16.391 11.512 0 4.203-3.402 7.309-9.403 7.309-6 0-9.732-2.704-10.354-7.894h2.451zM56.263 48.46v2.193l-6.916.036.037 15.093c0 4.167 2.78 5.19 4.976 5.19h1.903v2.339h-1.94c-3.366 0-7.317-1.827-7.317-7.529l-.037-15.093h-3.732v-2.193h3.732l-.036-7.2h2.378l.036 7.2 6.916-.036zm24.916 18.894c-2.342 3.764-5.854 6.213-11.452 6.25-7.5.036-12.916-5.52-12.952-12.755-.037-7.127 5.415-12.755 12.66-12.791 7.39-.037 12.585 5.628 12.585 11.95 0 .402-.036.804-.036 1.133-.037.146-.037.329-.037.512l-22.611.073c.402 6.067 5.013 9.502 10.354 9.502 4.903 0 7.647-1.974 9.586-5.153l1.903 1.279zM59.373 59.46l20.16-.073c-.55-5.592-4.903-9.063-10.062-9.063-4.976.036-9.586 3.581-10.099 9.136zm46.247-1.498l.036 15.166h-2.414l-.037-14.874c0-5.007-2.744-7.967-7.464-7.967-4.903 0-8.05 3.29-8.013 8.698l.037 14.18h-2.452L85.24 48.35h2.452v3.764c1.427-2.229 3.951-4.166 8.269-4.202 5.78.036 9.659 3.947 9.659 10.05zm28.831 2.631c.037 7.236-5.561 12.828-12.733 12.828-7.244.036-12.842-5.519-12.842-12.755-.037-7.126 5.525-12.755 12.769-12.791 7.135-.036 12.769 5.555 12.806 12.718zm-23.16.11c0 5.847 4.464 10.415 10.427 10.379 5.928 0 10.318-4.605 10.282-10.452 0-5.958-4.464-10.453-10.355-10.453-5.964.037-10.354 4.569-10.354 10.526zm-59.126 42.795l.036 13.558h-2.415l-.11-33.44h2.416v4.861c2.012-3.142 5.598-5.262 10.354-5.299 7.135-.036 12.696 5.555 12.696 12.718.037 7.236-5.488 12.828-12.623 12.828-4.72.036-8.305-2.083-10.354-5.226zm-.183-7.492c0 5.92 4.537 10.415 10.427 10.379 5.964 0 10.355-4.605 10.355-10.452 0-5.957-4.464-10.452-10.428-10.452-5.854.073-10.354 4.604-10.354 10.525zM89.119 85.81c-4.757 0-8.27 3.654-8.27 9.063l.037 13.485h-2.414l-.074-24.814h2.415v4.605c.951-1.828 3.659-5.007 8.269-5.044l.037 2.705zm3.183-8.844v-2.632h2.451v2.632h-2.451zm.11 31.356l-.074-24.815h2.452l.073 24.815h-2.451zm26.709-15.276l.036 15.166h-2.415l-.036-14.874c0-5.007-2.744-7.967-7.464-7.967-4.903 0-8.049 3.29-8.013 8.698l.037 14.18h-2.415l-.073-24.815h2.415v3.764c1.427-2.229 3.951-4.166 8.268-4.202 5.745.036 9.623 3.947 9.66 10.05zm14.964-9.685v2.193l-6.915.036.037 15.094c0 4.166 2.78 5.189 4.976 5.189h1.902v2.339h-1.939c-3.366 0-7.318-1.827-7.318-7.528l-.036-15.094h-3.732v-2.192h3.732l-.037-7.2h2.378l.037 7.2 6.915-.037z" fill="#192040"/><defs><linearGradient id="paint0_linear_4893_351" x1="38.165" y1="18.019" x2="108.922" y2="130.591" gradientUnits="userSpaceOnUse"><stop stop-color="#FE4F72"/><stop offset=".54" stop-color="#FFB53D"/><stop offset="1" stop-color="#E7BD33"/></linearGradient></defs></svg>