<svg width="24" height="24" fill="none" xmlns="http://www.w3.org/2000/svg"><path d="M12.871 17.245c.457 0 .644-.304.638-.686-.023-1.438.536-2.212 1.544-1.203 1.116 1.116 1.347 1.89 2.703 1.89h2.4c.606 0 .844-.196.844-.502 0-.647-1.066-1.79-1.969-2.628-1.264-1.173-1.323-1.201-.234-2.614C20.147 9.748 21.914 7.5 20.35 7.5h-2.985c-.58 0-.621.326-.828.812-.746 1.76-2.164 4.04-2.703 3.692-.563-.364-.305-1.805-.262-3.946.011-.566.008-.953-.856-1.154a6.052 6.052 0 00-1.356-.154c-1.705 0-2.881.715-2.213.84 1.178.219 1.065 2.768.79 3.87-.478 1.916-2.276-1.519-3.025-3.23-.181-.41-.237-.73-.882-.73H3.59c-.37 0-.591.12-.591.387 0 .451 2.22 5.04 4.34 7.327 2.066 2.231 4.11 2.031 5.531 2.031z" fill="#192040"/></svg>